<svg width="50" height="50" viewBox="0 0 50 50" fill="none" xmlns="http://www.w3.org/2000/svg">
<circle opacity="0.2" cx="25" cy="25" r="25" fill="#008EFF"/>
<path d="M33.753 17.9015L29.1549 15.1426C29.1343 15.1304 29.1113 15.1242 29.089 15.1143C28.7848 14.9319 28.3917 14.9648 28.1395 15.2346L21.6877 22.1477L18.1319 18.8877C17.8974 18.6732 17.5541 18.6264 17.2713 18.7674L15.4237 19.6909C15.2068 19.7989 15.0543 20.002 15.0122 20.2403C14.97 20.4786 15.0413 20.7223 15.206 20.8986L19.0293 24.9954L15.206 29.0923C15.0413 29.2686 14.9692 29.513 15.0122 29.7506C15.0551 29.9881 15.2076 30.192 15.4237 30.3L17.2713 31.2243C17.3802 31.2787 17.4974 31.3047 17.6139 31.3047C17.7894 31.3047 17.9641 31.2442 18.1051 31.1269L21.8441 28.011L28.1395 34.7563C28.2905 34.918 28.4951 35 28.6997 35C28.84 35 28.9749 34.9487 29.0982 34.872C29.1166 34.8628 29.1366 34.859 29.1542 34.8483L33.7522 32.0894C33.9829 31.9515 34.1247 31.7017 34.1247 31.4327V18.5582C34.1247 18.2892 33.9829 18.0394 33.753 17.9015ZM17.5081 29.6287L17.0261 29.3881L20.0769 26.1189L20.7957 26.8891L17.5081 29.6287ZM27.9939 32.3538L17.0261 20.6028L17.4851 20.3737L27.9939 30.0073V32.3538ZM27.9939 27.9275L25.1133 25.2867L27.9939 22.8865V27.9275ZM27.9939 20.8909L23.973 24.2414L22.8181 23.1823L27.9939 17.6371V20.8909ZM32.592 30.9982L29.5266 32.8374V17.1527L32.592 18.992V30.9982Z" fill="#008EFF"/>
</svg>
