<svg width="50" height="50" viewBox="0 0 50 50" fill="none" xmlns="http://www.w3.org/2000/svg">
<circle opacity="0.2" cx="25" cy="25" r="25" fill="#F23936"/>
<path d="M18.6672 18.4754L18.6667 29.1667C18.6667 31.3758 20.3859 33.1834 22.5594 33.3245L22.8333 33.3333L30.1907 33.3345C29.8471 34.3049 28.9214 35 27.8333 35H22C19.2386 35 17 32.7614 17 30V20.8333C17 19.7446 17.6959 18.8185 18.6672 18.4754ZM31.1667 15C32.5474 15 33.6667 16.1193 33.6667 17.5V29.1667C33.6667 30.5474 32.5474 31.6667 31.1667 31.6667H22.8333C21.4526 31.6667 20.3333 30.5474 20.3333 29.1667V17.5C20.3333 16.1193 21.4526 15 22.8333 15H31.1667ZM31.1667 16.6667H22.8333C22.3731 16.6667 22 17.0398 22 17.5V29.1667C22 29.6269 22.3731 30 22.8333 30H31.1667C31.6269 30 32 29.6269 32 29.1667V17.5C32 17.0398 31.6269 16.6667 31.1667 16.6667Z" fill="#F23936"/>
</svg>
